<svg xmlns="http://www.w3.org/2000/svg" fill="none" viewBox="0 0 257 259" height="259" width="257">
<path stroke-linejoin="round" stroke-linecap="round" stroke-width="0.5" stroke="#55485F" d="M128.016 258L100.016 242M128.016 258L128.016 226M128.016 258L156.016 242M128.016 226L100.016 242M128.016 226L156.016 242M128.016 226L100.016 210M128.016 226L128.016 194M128.016 226L156.016 210M100.016 242L100.016 210M156.016 242L156.016 210M128.016 194L100.016 210M128.016 194L156.016 210M128.016 194L100.016 178M128.016 194L128.016 162M128.016 194L156.016 178M100.016 210L100.016 178M156.016 210L156.016 178M128.016 162L100.016 178M128.016 162L156.016 178M128.016 162L100.016 146M128.016 162L128.016 130M128.016 162L156.016 146M100.016 178L100.016 146M156.016 178L156.016 146M128.016 130L100.016 146M128.016 130L156.016 146M128.016 130L100.016 114M128.016 130L128.016 98.0003M128.016 130L156.016 114M100.016 146L100.016 114M156.016 146L156.016 114M128.016 98.0003L100.016 114M128.016 98.0003L156.016 114M128.016 98.0003L100.016 82.0003M128.016 98.0003L128.016 66.0003M128.016 98.0003L156.016 82.0003M100.016 114L100.016 82.0003M156.016 114L156.016 82.0003M128.016 66.0003L100.016 82.0003M128.016 66.0003L156.016 82.0003M128.016 66.0003L100.016 50.0003M128.016 66.0003L128.016 34.0003M128.016 66.0003L156.016 50.0003M100.016 82.0003L100.016 50.0003M156.016 82.0003L156.016 50.0003M128.016 34.0003L100.016 50.0003M128.016 34.0003L156.016 50.0003M128.016 34.0003L100.016 18.0002M128.016 34.0003L128.016 2.00023M128.016 34.0003L156.016 18.0002M100.016 50.0003L100.016 18.0002M156.016 50.0003L156.016 18.0002M128.016 2.00023L100.016 18.0002M128.016 2.00023L156.016 18.0002M72.0237 226L100.023 242L100.023 210M72.0237 226L44.0232 210M72.0237 226L72.0237 194M72.0237 226L100.023 210M72.0237 194L44.0232 210M72.0237 194L100.023 210M72.0237 194L44.0232 178M72.0237 194L72.0237 162M72.0237 194L100.023 178M44.0232 210L44.0232 178M44.0232 210L16.0236 194M100.023 210L100.023 178M72.0237 162L44.0232 178M72.0237 162L100.023 178M72.0237 162L44.0232 146M72.0237 162L72.0237 130M72.0237 162L100.023 146M44.0232 178L44.0232 146M44.0232 178L16.0236 194M44.0232 178L16.0236 162M100.023 178L100.023 146M72.0237 130L44.0232 146M72.0237 130L100.023 146M72.0237 130L44.0232 114M72.0237 130L72.0237 98.0003M72.0237 130L100.023 114M44.0232 146L44.0232 114M44.0232 146L16.0236 162M44.0232 146L16.0236 130M100.023 146L100.023 114M72.0237 98.0003L44.0232 114M72.0237 98.0003L100.023 114M72.0237 98.0003L44.0232 82.0003M72.0237 98.0003L72.0237 66.0003M72.0237 98.0003L100.023 82.0003M44.0232 114L44.0232 82.0003M44.0232 114L16.0236 130M44.0232 114L16.0236 98.0002M100.023 114L100.023 82.0003M72.0237 66.0003L44.0232 82.0003M72.0237 66.0003L100.023 82.0003M72.0237 66.0003L44.0232 50.0003M72.0237 66.0003L72.0237 34.0003M72.0237 66.0003L100.023 50.0003M44.0232 82.0003L44.0232 50.0003M44.0232 82.0003L16.0236 98.0002M44.0232 82.0003L16.0236 66.0003M100.023 82.0003L100.023 50.0003M72.0237 34.0003L44.0232 50.0003M72.0237 34.0003L100.023 50.0003M72.0237 34.0003L100.023 18.0002L100.023 50.0003M44.0232 50.0003L16.0236 66.0003M184.011 226L156.011 242L156.011 210M184.011 226L156.011 210M184.011 226L184.011 194M184.011 226L212.011 210M184.011 194L156.011 210M184.011 194L212.011 210M184.011 194L156.011 178M184.011 194L184.011 162M184.011 194L212.011 178M156.011 210L156.011 178M212.011 210L212.011 178M212.011 210L240.012 194M184.011 162L156.011 178M184.011 162L212.011 178M184.011 162L156.011 146M184.011 162L184.011 130M184.011 162L212.011 146M156.011 178L156.011 146M212.011 178L212.011 146M212.011 178L240.012 194M212.011 178L240.012 162M184.011 130L156.011 146M184.011 130L212.011 146M184.011 130L156.011 114M184.011 130L184.011 98.0002M184.011 130L212.011 114M156.011 146L156.011 114M212.011 146L212.011 114M212.011 146L240.012 162M212.011 146L240.012 130M184.011 98.0002L156.011 114M184.011 98.0002L212.011 114M184.011 98.0002L156.011 82.0002M184.011 98.0002L184.011 66.0002M184.011 98.0002L212.011 82.0002M156.011 114L156.011 82.0002M212.011 114L212.011 82.0002M212.011 114L240.012 130M212.011 114L240.012 98.0002M184.011 66.0002L156.011 82.0002M184.011 66.0002L212.011 82.0002M184.011 66.0002L156.011 50.0002M184.011 66.0002L184.011 34.0002M184.011 66.0002L212.011 50.0002M156.011 82.0002L156.011 50.0002M212.011 82.0002L212.011 50.0002M212.011 82.0002L240.012 98.0002M212.011 82.0002L240.012 66.0002M184.011 34.0002L156.011 50.0002M184.011 34.0002L212.011 50.0002M184.011 34.0002L156.011 18.0002L156.011 50.0002M212.011 50.0002L240.012 66.0002M156.018 242L156.018 210L156.018 178L156.018 146L156.018 114L156.018 82.0002L156.018 50.0002L156.018 18.0002M44.0156 210L44.0156 178L44.0156 146L44.0157 114L44.0157 82.0003L44.0157 50.0003M16.0236 194L16.0236 162M16.0236 162L16.0236 130M16.0236 130L16.0236 98.0002M16.0236 98.0002L16.0236 66.0003M212.016 210L212.016 178L212.016 146L212.016 114L212.016 82.0003L212.016 50.0003M240.012 194L240.012 162M240.012 162L240.012 130M240.012 130L240.012 98.0002M240.012 98.0002L240.012 66.0002M212.019 210L212.019 178L212.019 146L212.019 114L212.019 82.0002L212.019 50.0002"></path>
<path fill="url(#paint0_linear_3945_19569)" d="M19.0468 130.016L44.7676 115.318L43.2792 112.714L15.2792 128.714C14.8119 128.981 14.5234 129.478 14.5234 130.016C14.5234 130.554 14.8119 131.051 15.2792 131.318L127.279 195.318C127.74 195.582 128.306 195.582 128.768 195.318L240.768 131.318C241.235 131.051 241.523 130.554 241.523 130.016C241.523 129.478 241.235 128.981 240.768 128.714L212.768 112.714L211.279 115.318L237 130.016L128.023 192.288L19.0468 130.016Z" clip-rule="evenodd" fill-rule="evenodd"></path>
<path fill="url(#paint1_linear_3945_19569)" d="M99.2792 112.676C99.7404 112.412 100.306 112.412 100.768 112.676L128.768 128.676C129.235 128.943 129.523 129.44 129.523 129.978C129.523 130.516 129.235 131.013 128.768 131.281L101.523 146.849V177.978C101.523 178.513 101.239 179.007 100.776 179.276C100.314 179.544 99.7435 179.546 99.2792 179.281L71.2792 163.281C70.8119 163.013 70.5234 162.516 70.5234 161.978V129.978C70.5234 129.44 70.8119 128.943 71.2792 128.676L99.2792 112.676ZM100.023 144.251L125 129.978L100.023 115.706L75.0468 129.978L100.023 144.251ZM73.5234 132.563V161.108L98.5234 175.393V146.849L73.5234 132.563Z" clip-rule="evenodd" fill-rule="evenodd"></path>
<path fill="url(#paint2_linear_3945_19569)" d="M155.271 112.695C155.733 112.431 156.299 112.431 156.76 112.695L184.76 128.695C185.227 128.962 185.516 129.459 185.516 129.997V161.997C185.516 162.535 185.227 163.032 184.76 163.299L156.76 179.299C156.296 179.565 155.725 179.563 155.263 179.294C154.8 179.026 154.516 178.532 154.516 177.997V146.867L127.271 131.299C126.804 131.032 126.516 130.535 126.516 129.997C126.516 129.459 126.804 128.962 127.271 128.695L155.271 112.695ZM157.516 146.867V175.412L182.516 161.126V132.582L157.516 146.867ZM180.992 129.997L156.016 144.269L131.039 129.997L156.016 115.725L180.992 129.997Z" clip-rule="evenodd" fill-rule="evenodd"></path>
<path fill="url(#paint3_linear_3945_19569)" d="M127.279 128.714C127.74 128.45 128.306 128.45 128.768 128.714L156.768 144.714C157.235 144.981 157.523 145.478 157.523 146.016V178.016C157.523 178.554 157.235 179.051 156.768 179.318L128.768 195.318C128.306 195.582 127.74 195.582 127.279 195.318L99.2792 179.318C98.8119 179.051 98.5234 178.554 98.5234 178.016V146.016C98.5234 145.478 98.8119 144.981 99.2792 144.714L127.279 128.714ZM101.523 148.601V177.146L126.523 191.431V162.886L101.523 148.601ZM129.523 162.886V191.431L154.523 177.146V148.601L129.523 162.886ZM153 146.016L128.023 160.288L103.047 146.016L128.023 131.744L153 146.016Z" clip-rule="evenodd" fill-rule="evenodd"></path>
<path fill="url(#paint4_linear_3945_19569)" d="M218.012 177.978C218.012 174.665 215.325 171.978 212.012 171.978C208.698 171.978 206.012 174.665 206.012 177.978C206.012 181.292 208.698 183.978 212.012 183.978C215.325 183.978 218.012 181.292 218.012 177.978Z"></path>
<path fill="url(#paint5_linear_3945_19569)" d="M50.0235 178.143C50.0235 174.83 47.3372 172.143 44.0234 172.143C40.7097 172.143 38.0234 174.83 38.0234 178.143C38.0234 181.457 40.7097 184.143 44.0234 184.143C47.3372 184.143 50.0235 181.457 50.0235 178.143Z"></path>
<path fill="url(#paint6_linear_3945_19569)" d="M64.0235 202.143C64.0235 198.829 61.3372 196.143 58.0234 196.143C54.7097 196.143 52.0234 198.829 52.0234 202.143C52.0234 205.457 54.7097 208.143 58.0234 208.143C61.3372 208.143 64.0235 205.457 64.0235 202.143Z"></path>
<path fill="url(#paint7_linear_3945_19569)" d="M203.141 201.391C203.141 198.077 200.454 195.391 197.141 195.391C193.827 195.391 191.141 198.077 191.141 201.391C191.141 204.705 193.827 207.391 197.141 207.391C200.454 207.391 203.141 204.705 203.141 201.391Z"></path>
<path fill="url(#paint8_linear_3945_19569)" d="M106.023 209.75C106.023 206.437 103.337 203.75 100.023 203.75C96.7097 203.75 94.0234 206.437 94.0234 209.75C94.0234 213.064 96.7097 215.75 100.023 215.75C103.337 215.75 106.023 213.064 106.023 209.75Z"></path>
<path fill="url(#paint9_linear_3945_19569)" d="M162.016 209.75C162.016 206.437 159.329 203.75 156.016 203.75C152.702 203.75 150.016 206.437 150.016 209.75C150.016 213.064 152.702 215.75 156.016 215.75C159.329 215.75 162.016 213.064 162.016 209.75Z"></path>
<path fill="url(#paint10_linear_3945_19569)" d="M134.016 251.219C134.016 247.906 131.329 245.219 128.016 245.219C124.702 245.219 122.016 247.906 122.016 251.219C122.016 254.533 124.702 257.219 128.016 257.219C131.329 257.219 134.016 254.533 134.016 251.219Z"></path>
<path fill="url(#paint11_linear_3945_19569)" d="M126.519 254.637V194.014H129.519V254.637H126.519ZM101.566 178.142V210.142H98.5664V178.142H101.566ZM157.535 177.955V209.955H154.535V177.955H157.535ZM70.523 193.116L57.2782 200.699L58.7687 203.302L73.523 194.856L73.523 161.986H70.523L70.523 193.116ZM197.014 203.257L182.259 194.825V161.916H185.259V193.085L198.503 200.653L197.014 203.257ZM45.5229 146.143L45.5229 178.142H42.5229L42.5229 146.143H45.5229ZM213.535 146.08L213.535 178.08L210.535 178.08L210.535 146.08L213.535 146.08Z" clip-rule="evenodd" fill-rule="evenodd"></path>
<path fill="url(#paint12_linear_3945_19569)" d="M101.326 49.2565C101.737 49.9759 101.487 50.8922 100.767 51.303L75.054 65.986L100.768 80.6984C101.235 80.9656 101.524 81.4625 101.523 82.0006C101.523 82.5387 101.235 83.0355 100.768 83.3026L73.5219 98.8794L73.4087 161.253C73.4077 161.787 73.1227 162.281 72.6604 162.548C72.1981 162.816 71.6283 162.818 71.1645 162.553L43.2792 146.618C42.8119 146.351 42.5234 145.854 42.5234 145.316V81.9847C42.5234 81.4464 42.8119 80.9493 43.2794 80.6823L99.2796 48.6978C99.999 48.287 100.915 48.5372 101.326 49.2565ZM72.0238 96.2801L97.0021 81.9999L72.0307 67.7126L47.0454 81.9859L72.0238 96.2801ZM45.5234 84.5714V144.445L70.4134 158.668L70.5219 98.8771L45.5234 84.5714Z" clip-rule="evenodd" fill-rule="evenodd"></path>
<path fill="url(#paint13_linear_3945_19569)" d="M154.713 49.256C155.124 48.5368 156.041 48.287 156.76 48.6981L212.756 80.698C213.224 80.9655 213.513 81.4637 213.512 82.003L213.399 146.089C213.398 146.627 213.11 147.122 212.644 147.389L184.758 163.323C184.294 163.589 183.724 163.587 183.261 163.318C182.799 163.05 182.514 162.556 182.514 162.021V98.8858L155.271 83.2944C154.803 83.0271 154.515 82.53 154.516 81.9918C154.516 81.4537 154.804 80.9568 155.272 80.69L180.99 66.0036L155.271 51.3026C154.552 50.8915 154.302 49.9752 154.713 49.256ZM184.014 67.7317L159.038 81.994L184.014 96.2878L208.989 82.0012L184.014 67.7317ZM210.507 84.5891L185.514 98.886V159.436L210.401 145.215L210.507 84.5891Z" clip-rule="evenodd" fill-rule="evenodd"></path>
<path fill="url(#paint14_linear_3945_19569)" d="M127.271 0.697968C127.733 0.434487 128.299 0.4345 128.76 0.698002L156.76 16.698C157.227 16.9651 157.516 17.4621 157.516 18.0004V114C157.516 114.538 157.227 115.035 156.761 115.302L128.767 131.318C128.305 131.582 127.738 131.582 127.277 131.318L99.2746 115.294C98.8076 115.027 98.5195 114.531 98.5195 113.993V17.9965C98.5195 17.4582 98.808 16.9611 99.2754 16.6941L127.271 0.697968ZM101.52 20.5808V113.123L126.522 127.429V34.8632L101.52 20.5808ZM129.522 34.8632V127.43L154.516 113.13V20.5848L129.522 34.8632ZM152.992 18.0002L128.022 32.2651L103.043 17.9963L128.016 3.72797L152.992 18.0002Z" clip-rule="evenodd" fill-rule="evenodd"></path>
<defs>
<linearGradient gradientUnits="userSpaceOnUse" y2="128.86" x2="241.523" y1="128.86" x1="14.5234" id="paint0_linear_3945_19569">
<stop stop-color="#6B1C96"></stop>
<stop stop-color="#D90036" offset="0.5"></stop>
<stop stop-color="#FFCA0B" offset="1"></stop>
</linearGradient>
<linearGradient gradientUnits="userSpaceOnUse" y2="128.86" x2="241.523" y1="128.86" x1="14.5234" id="paint1_linear_3945_19569">
<stop stop-color="#6B1C96"></stop>
<stop stop-color="#D90036" offset="0.5"></stop>
<stop stop-color="#FFCA0B" offset="1"></stop>
</linearGradient>
<linearGradient gradientUnits="userSpaceOnUse" y2="128.86" x2="241.523" y1="128.86" x1="14.5234" id="paint2_linear_3945_19569">
<stop stop-color="#6B1C96"></stop>
<stop stop-color="#D90036" offset="0.5"></stop>
<stop stop-color="#FFCA0B" offset="1"></stop>
</linearGradient>
<linearGradient gradientUnits="userSpaceOnUse" y2="128.86" x2="241.523" y1="128.86" x1="14.5234" id="paint3_linear_3945_19569">
<stop stop-color="#6B1C96"></stop>
<stop stop-color="#D90036" offset="0.5"></stop>
<stop stop-color="#FFCA0B" offset="1"></stop>
</linearGradient>
<linearGradient gradientUnits="userSpaceOnUse" y2="128.86" x2="241.523" y1="128.86" x1="14.5234" id="paint4_linear_3945_19569">
<stop stop-color="#6B1C96"></stop>
<stop stop-color="#D90036" offset="0.5"></stop>
<stop stop-color="#FFCA0B" offset="1"></stop>
</linearGradient>
<linearGradient gradientUnits="userSpaceOnUse" y2="128.86" x2="241.523" y1="128.86" x1="14.5234" id="paint5_linear_3945_19569">
<stop stop-color="#6B1C96"></stop>
<stop stop-color="#D90036" offset="0.5"></stop>
<stop stop-color="#FFCA0B" offset="1"></stop>
</linearGradient>
<linearGradient gradientUnits="userSpaceOnUse" y2="128.86" x2="241.523" y1="128.86" x1="14.5234" id="paint6_linear_3945_19569">
<stop stop-color="#6B1C96"></stop>
<stop stop-color="#D90036" offset="0.5"></stop>
<stop stop-color="#FFCA0B" offset="1"></stop>
</linearGradient>
<linearGradient gradientUnits="userSpaceOnUse" y2="128.86" x2="241.523" y1="128.86" x1="14.5234" id="paint7_linear_3945_19569">
<stop stop-color="#6B1C96"></stop>
<stop stop-color="#D90036" offset="0.5"></stop>
<stop stop-color="#FFCA0B" offset="1"></stop>
</linearGradient>
<linearGradient gradientUnits="userSpaceOnUse" y2="128.86" x2="241.523" y1="128.86" x1="14.5234" id="paint8_linear_3945_19569">
<stop stop-color="#6B1C96"></stop>
<stop stop-color="#D90036" offset="0.5"></stop>
<stop stop-color="#FFCA0B" offset="1"></stop>
</linearGradient>
<linearGradient gradientUnits="userSpaceOnUse" y2="128.86" x2="241.523" y1="128.86" x1="14.5234" id="paint9_linear_3945_19569">
<stop stop-color="#6B1C96"></stop>
<stop stop-color="#D90036" offset="0.5"></stop>
<stop stop-color="#FFCA0B" offset="1"></stop>
</linearGradient>
<linearGradient gradientUnits="userSpaceOnUse" y2="128.86" x2="241.523" y1="128.86" x1="14.5234" id="paint10_linear_3945_19569">
<stop stop-color="#6B1C96"></stop>
<stop stop-color="#D90036" offset="0.5"></stop>
<stop stop-color="#FFCA0B" offset="1"></stop>
</linearGradient>
<linearGradient gradientUnits="userSpaceOnUse" y2="128.86" x2="241.523" y1="128.86" x1="14.5234" id="paint11_linear_3945_19569">
<stop stop-color="#6B1C96"></stop>
<stop stop-color="#D90036" offset="0.5"></stop>
<stop stop-color="#FFCA0B" offset="1"></stop>
</linearGradient>
<linearGradient gradientUnits="userSpaceOnUse" y2="128.86" x2="241.523" y1="128.86" x1="14.5234" id="paint12_linear_3945_19569">
<stop stop-color="#6B1C96"></stop>
<stop stop-color="#D90036" offset="0.5"></stop>
<stop stop-color="#FFCA0B" offset="1"></stop>
</linearGradient>
<linearGradient gradientUnits="userSpaceOnUse" y2="128.86" x2="241.523" y1="128.86" x1="14.5234" id="paint13_linear_3945_19569">
<stop stop-color="#6B1C96"></stop>
<stop stop-color="#D90036" offset="0.5"></stop>
<stop stop-color="#FFCA0B" offset="1"></stop>
</linearGradient>
<linearGradient gradientUnits="userSpaceOnUse" y2="128.86" x2="241.523" y1="128.86" x1="14.5234" id="paint14_linear_3945_19569">
<stop stop-color="#6B1C96"></stop>
<stop stop-color="#D90036" offset="0.5"></stop>
<stop stop-color="#FFCA0B" offset="1"></stop>
</linearGradient>
</defs>
</svg>
